# File generated by ImageToStl.com - Free Image and 3D model conversion tools

o obj1
v -38 -38 60
v -30 -0 60
v -38 38 60
v -15 25.98076057 60
v 38 38 60
v 15 25.98076057 60
v 30 0 60
v 38 -38 60
v 15 -25.98076057 60
v -15 -25.98076057 60
v 30 0 20
v 15 -25.98076057 20
v 30 0 60
v -15 -25.98076057 20
v -30 -0 20
v -30 -0 20
v -15 25.98076057 20
v -30 -0 60
v 15 25.98076057 20
v 30 0 20
v 30 0 60
v -38 38 50
v -48 48 50
v -38 -38 50
v -48 -48 50
v 38 -38 50
v 48 -48 50
v 38 38 50
v 48 48 50
v 48 48 0
v 48 -48 0
v -48 48 0
v -48 -48 0
vn 0 0 1
vn -0.86603 0.5 0
vn 0 1 -0
vn 0.86603 0.5 -0
vn 0.86603 -0.5 0
vn 0 -1 0
vn -0.86603 -0.5 0
vn -1 0 0
vn 1 0 0
vn -0 -0 -1
f 1//1 2//1 3//1
f 3//1 2//1 4//1
f 3//1 4//1 5//1
f 4//1 6//1 5//1
f 5//1 6//1 7//1
f 5//1 7//1 8//1
f 8//1 7//1 9//1
f 8//1 9//1 1//1
f 1//1 9//1 10//1
f 1//1 10//1 2//1
f 11//2 12//2 13//2
f 13//2 12//2 9//2
f 12//3 14//3 9//3
f 9//3 14//3 10//3
f 14//4 15//4 10//4
f 10//4 15//4 2//4
f 16//5 17//5 18//5
f 18//5 17//5 4//5
f 17//6 19//6 4//6
f 4//6 19//6 6//6
f 19//7 20//7 6//7
f 6//7 20//7 21//7
f 19//1 17//1 20//1
f 20//1 17//1 15//1
f 20//1 15//1 12//1
f 12//1 15//1 14//1
f 22//1 23//1 24//1
f 24//1 23//1 25//1
f 24//1 25//1 26//1
f 26//1 25//1 27//1
f 26//1 27//1 28//1
f 28//1 27//1 29//1
f 28//1 29//1 22//1
f 22//1 29//1 23//1
f 22//8 24//8 3//8
f 3//8 24//8 1//8
f 28//3 22//3 5//3
f 5//3 22//3 3//3
f 26//9 28//9 8//9
f 8//9 28//9 5//9
f 24//6 26//6 1//6
f 1//6 26//6 8//6
f 30//10 31//10 32//10
f 32//10 31//10 33//10
f 30//3 32//3 29//3
f 29//3 32//3 23//3
f 31//9 30//9 27//9
f 27//9 30//9 29//9
f 33//6 31//6 25//6
f 25//6 31//6 27//6
f 32//8 33//8 23//8
f 23//8 33//8 25//8
# Vertices: 33, normals: 10, texture coordinates: 0, faces: 52

